<svg width="50" height="50" viewBox="0 0 50 50" fill="none" xmlns="http://www.w3.org/2000/svg">
<path fill-rule="evenodd" clip-rule="evenodd" d="M24.9984 0C11.1934 0 0 11.4761 0 25.6328C0 36.9567 7.16116 46.5644 17.098 49.955C18.3483 50.1889 18.7422 49.4294 18.7422 48.75C18.7422 48.1411 18.7547 46.4394 18.7422 44.3003C11.7889 45.8497 10.3479 40.9241 10.3479 40.9241C9.21168 37.963 7.57377 37.1746 7.57377 37.1746C5.30445 35.5851 7.74412 35.6155 7.74412 35.6155C10.2526 35.7966 11.5748 38.2578 11.5748 38.2578C13.805 42.1723 17.4247 41.0411 18.8485 40.3873C19.0766 38.7305 19.7237 37.6008 20.4379 36.9599C14.8865 36.3125 9.0507 34.1141 9.0507 24.2917C9.0507 21.4924 10.0244 19.2058 11.6232 17.4144C11.3653 16.767 10.5058 14.16 11.8686 10.63C11.8686 10.63 13.9676 9.941 18.7422 13.2595C20.7364 12.6906 22.876 12.407 25.0016 12.3974C27.1255 12.407 29.2636 12.6906 31.2609 13.2595C36.0356 9.9426 38.1314 10.63 38.1314 10.63C39.4942 14.16 38.6362 16.767 38.3799 17.4144C39.9787 19.2058 40.9493 21.4924 40.9493 24.2917C40.9493 34.1397 35.1041 36.3061 29.5339 36.9391C30.431 37.7322 31.2453 39.2705 31.2453 41.6612C31.2453 44.8659 31.2453 47.9136 31.2453 48.7564C31.2453 49.4422 31.6485 50.2001 32.9176 49.9518C42.8451 46.5564 50 36.9535 50 25.6328C50 11.4761 38.8066 0 24.9984 0Z" fill="#0F7FFF"/>
</svg>
