<svg width="50" height="50" viewBox="0 0 50 50" fill="none" xmlns="http://www.w3.org/2000/svg">
<circle cx="25" cy="25" r="23" stroke="#0F7FFF" stroke-width="4"/>
<path d="M18.325 33V16.075H15.275V12.75H25.85V16.075H22.825V33H18.325Z" fill="#FFFDF0"/>
<path d="M23.5 37V16.75H28.775C29.6417 16.75 30.4583 16.8167 31.225 16.95C32.0083 17.0833 32.7 17.3417 33.3 17.725C33.9 18.0917 34.3667 18.625 34.7 19.325C35.05 20.0083 35.225 20.9167 35.225 22.05C35.225 22.8667 35.1 23.5583 34.85 24.125C34.6167 24.675 34.275 25.1167 33.825 25.45C33.3917 25.7833 32.8667 26.0083 32.25 26.125C33.0333 26.225 33.6917 26.4833 34.225 26.9C34.7583 27.3 35.1583 27.8417 35.425 28.525C35.7083 29.2083 35.85 30.0333 35.85 31C35.85 32.05 35.7083 32.9583 35.425 33.725C35.1583 34.475 34.7667 35.0917 34.25 35.575C33.7333 36.0583 33.0917 36.4167 32.325 36.65C31.575 36.8833 30.7083 37 29.725 37H23.5ZM27.975 33.875H28.925C29.9083 33.875 30.5833 33.625 30.95 33.125C31.3333 32.625 31.525 31.8917 31.525 30.925C31.525 30.1583 31.4417 29.55 31.275 29.1C31.1083 28.65 30.8333 28.325 30.45 28.125C30.0667 27.9083 29.55 27.8 28.9 27.8H27.975V33.875ZM27.975 24.85H28.85C29.5333 24.85 30.05 24.75 30.4 24.55C30.75 24.3333 30.9833 24.025 31.1 23.625C31.2333 23.225 31.3 22.7417 31.3 22.175C31.3 21.6417 31.2 21.2 31 20.85C30.8167 20.4833 30.5333 20.2083 30.15 20.025C29.7833 19.8417 29.3167 19.75 28.75 19.75H27.975V24.85Z" fill="#FFFDF0"/>
</svg>
