<svg width="50" height="50" viewBox="0 0 50 50" fill="none" xmlns="http://www.w3.org/2000/svg">
<path fill-rule="evenodd" clip-rule="evenodd" d="M25 50C38.8071 50 50 38.8071 50 25C50 11.1929 38.8071 0 25 0C11.1929 0 0 11.1929 0 25C0 38.8071 11.1929 50 25 50Z" fill="#0F7FFF"/>
<path fill-rule="evenodd" clip-rule="evenodd" d="M12.5 18.8997V33.6263C12.5 34.4275 13.0637 35.0768 13.8403 35.0768H35.9339C36.7097 35.0768 37.2742 34.4199 37.2742 33.6263V18.8997C37.2742 18.0205 36.7694 17.3376 35.9339 17.3376H13.8403C12.9726 17.3376 12.5 18.0373 12.5 18.8997ZM14.5371 20.1825C14.5371 19.8276 14.7435 19.6246 15.0734 19.6246C15.2774 19.6246 23.3056 24.9165 23.7919 25.2269L25.0484 26.0398C25.4468 25.7622 25.8468 25.5247 26.2597 25.237C27.1024 24.6766 34.6008 19.6246 34.8073 19.6246C35.1379 19.6246 35.3436 19.8276 35.3436 20.1825C35.3436 20.5583 34.6476 20.9316 34.1944 21.2194C31.3468 23.0247 28.5 24.9929 25.6806 26.8654C25.5161 26.9811 25.1976 27.2286 24.9589 27.1909C24.6927 27.1481 16.5234 21.6883 15.0371 20.7789C14.8137 20.6422 14.5371 20.5172 14.5371 20.1825Z" fill="#0E0E0E"/>
</svg>
